<mxfile host="app.diagrams.net" modified="2023-10-07T01:02:53.194Z" agent="Mozilla/5.0 (Macintosh; Intel Mac OS X 10_15_7) AppleWebKit/537.36 (KHTML, like Gecko) Chrome/116.0.0.0 Safari/537.36" etag="Yhz-FQEtivNN-dSvyIV8" version="22.0.0" type="github">
  <diagram id="3228e29e-7158-1315-38df-8450db1d8a1d" name="Page-1">
    <mxGraphModel dx="1005" dy="124" grid="0" gridSize="10" guides="1" tooltips="1" connect="1" arrows="1" fold="1" page="1" pageScale="1" pageWidth="740" pageHeight="229" background="#EFF1F3" math="0" shadow="0">
      <root>
        <mxCell id="0" />
        <mxCell id="1" parent="0" />
        <mxCell id="sfySFkq4cwXb8gAofgEJ-10" value="" style="rounded=1;whiteSpace=wrap;html=1;strokeColor=#4D4D4D;fillColor=#4A919B;dashed=1;strokeWidth=2;opacity=20;" parent="1" vertex="1">
          <mxGeometry x="318" y="482" width="271" height="109" as="geometry" />
        </mxCell>
        <mxCell id="x9DbvD0DJm_1i8W1Pchg-5" value="" style="rounded=1;whiteSpace=wrap;html=1;strokeColor=#000000;fillColor=none;dashed=1;strokeWidth=2;" parent="1" vertex="1">
          <mxGeometry x="504" y="482" width="220" height="109" as="geometry" />
        </mxCell>
        <mxCell id="x9DbvD0DJm_1i8W1Pchg-2" value="" style="rounded=1;whiteSpace=wrap;html=1;strokeColor=#000000;fillColor=none;dashed=1;strokeWidth=2;" parent="1" vertex="1">
          <mxGeometry x="15" y="482" width="385" height="109" as="geometry" />
        </mxCell>
        <mxCell id="p1h1nwEygJZJCR_WZmpz-7" value="" style="fontColor=#0066CC;verticalAlign=top;verticalLabelPosition=bottom;labelPosition=center;align=center;html=1;outlineConnect=0;fillColor=#535E80;strokeColor=#000000;gradientColor=none;gradientDirection=north;strokeWidth=2;shape=mxgraph.networks.server;fontSize=15;" parent="1" vertex="1">
          <mxGeometry x="589" y="603.15" width="50" height="53" as="geometry" />
        </mxCell>
        <mxCell id="p1h1nwEygJZJCR_WZmpz-8" value="&lt;div style=&quot;font-family: Menlo, Monaco, &amp;quot;Courier New&amp;quot;, monospace; line-height: 24px;&quot;&gt;&lt;div style=&quot;&quot;&gt;&lt;font color=&quot;#ffffff&quot;&gt;&lt;span style=&quot;font-size: 15px;&quot;&gt;req&lt;/span&gt;&lt;/font&gt;&lt;/div&gt;&lt;/div&gt;" style="rounded=1;whiteSpace=wrap;html=1;strokeWidth=5;fontSize=30;strokeColor=#67AB9F;fillColor=#67AB9F;align=center;" parent="1" vertex="1">
          <mxGeometry x="26" y="499.6" width="38" height="29" as="geometry" />
        </mxCell>
        <mxCell id="p1h1nwEygJZJCR_WZmpz-11" value="&lt;font color=&quot;#535e80&quot;&gt;remoteFunc&lt;/font&gt;" style="text;html=1;strokeColor=none;fillColor=none;align=center;verticalAlign=middle;whiteSpace=wrap;rounded=0;fontSize=15;" parent="1" vertex="1">
          <mxGeometry x="123" y="551.8" width="85" height="30" as="geometry" />
        </mxCell>
        <mxCell id="p1h1nwEygJZJCR_WZmpz-24" value="" style="shape=flexArrow;endArrow=classic;html=1;rounded=0;fontSize=15;fontColor=#4A919B;strokeColor=none;fillColor=#67AB9F;" parent="1" edge="1">
          <mxGeometry width="50" height="50" relative="1" as="geometry">
            <mxPoint x="80" y="515.6" as="sourcePoint" />
            <mxPoint x="118" y="515.6" as="targetPoint" />
          </mxGeometry>
        </mxCell>
        <mxCell id="P0st4BYcCsoFQTtrV0lk-2" value="" style="shape=image;verticalLabelPosition=bottom;labelBackgroundColor=default;verticalAlign=top;aspect=fixed;imageAspect=0;image=data:image/svg+xml,PHN2ZyB4bWxuczp4bGluaz0iaHR0cDovL3d3dy53My5vcmcvMTk5OS94bGluayIgeG1sbnM9Imh0dHA6Ly93d3cudzMub3JnLzIwMDAvc3ZnIiBoZWlnaHQ9IjIwMCIgd2lkdGg9IjI1MCIgdmVyc2lvbj0iMS4xIiB2aWV3Qm94PSIwIDAgMTI4MCAxMDI0IiBjbGFzcz0iaWNvbiI+PGRlZnM+PHN0eWxlIHR5cGU9InRleHQvY3NzIj5AZm9udC1mYWNlIHsgZm9udC1mYW1pbHk6IGZlZWRiYWNrLWljb25mb250OyBzcmM6IHVybCgiLy9hdC5hbGljZG4uY29tL3QvZm9udF8xMDMxMTU4X3U2OXc4eWh4ZHUud29mZjI/dD0xNjMwMDMzNzU5OTQ0IikgZm9ybWF0KCJ3b2ZmMiIpLCB1cmwoIi8vYXQuYWxpY2RuLmNvbS90L2ZvbnRfMTAzMTE1OF91Njl3OHloeGR1LndvZmY/dD0xNjMwMDMzNzU5OTQ0IikgZm9ybWF0KCJ3b2ZmIiksIHVybCgiLy9hdC5hbGljZG4uY29tL3QvZm9udF8xMDMxMTU4X3U2OXc4eWh4ZHUudHRmP3Q9MTYzMDAzMzc1OTk0NCIpIGZvcm1hdCgidHJ1ZXR5cGUiKTsgfSYjeGE7PC9zdHlsZT48L2RlZnM+PHBhdGggZmlsbD0iIzUzNUU4MCIgZD0iTTU3Ny40NTAyNTYgNjM5Ljk4OTJjMC0xMDQuNjc4MjM0IDMzLjkxOTQyOC0yMDYuNDM2NTE2IDk2LjAxODM3OS0yODkuODk1MTA4IDEwLjMzOTgyNi0xMy44Nzk3NjYgOC44OTk4NS0zMy4wNzk0NDItNC4yOTk5MjctNDQuMjc5MjUzbC00OS4zNzkxNjctNDEuOTU5MjkyYy0xMy45OTk3NjQtMTEuODk5Nzk5LTM1LjY1OTM5OC0xMC4xNzk4MjgtNDYuNzU5MjExIDQuNDU5OTI1QzQ5Mi4xNzE2OTUgMzc0LjgzMzY3NSA0NDcuOTkyNDQgNTA1LjU1MTQ2OSA0NDcuOTkyNDQgNjM5Ljk4OTJjMCAxMzQuNDU3NzMxIDQ0LjE3OTI1NCAyNjUuMTc1NTI1IDEyNS4wMzc4OSAzNzEuNjczNzI4IDExLjExOTgxMiAxNC42Mzk3NTMgMzIuNzU5NDQ3IDE2LjM1OTcyNCA0Ni43NTkyMTEgNC40NTk5MjVsNDkuMzc5MTY3LTQxLjk3OTI5MmMxMy4xNzk3NzgtMTEuMjE5ODExIDE0LjYxOTc1My0zMC4zOTk0ODcgNC4yOTk5MjctNDQuMjc5MjUyLTYyLjExODk1Mi04My40MTg1OTItOTYuMDE4MzgtMTg1LjE5Njg3NS05Ni4wMTgzNzktMjg5Ljg3NTEwOXpNNDQ3Ljk5MjQ0IDMxLjk5OTQ2YzAtMTcuNjc5NzAyLTE0LjMxOTc1OC0zMS45OTk0Ni0zMS45OTk0Ni0zMS45OTk0NmgtOTUuOTk4MzhDMjA1LjExNjUzOSAwIDExMS45OTgxMSA5My4xMTg0MjkgMTExLjk5ODExIDIwNy45OTY0OXYxMjcuOTk3ODRIMzEuOTk5NDZjLTE3LjY3OTcwMiAwLTMxLjk5OTQ2IDE0LjMxOTc1OC0zMS45OTk0NiAzMS45OTk0NnY5NS45OTgzOGMwIDE3LjY3OTcwMiAxNC4zMTk3NTggMzEuOTk5NDYgMzEuOTk5NDYgMzEuOTk5NDZoNzkuOTk4NjV2MjU1Ljk5NTY4YzAgMjYuMzk5NTU1LTIxLjU5OTYzNiA0Ny45OTkxOS00Ny45OTkxOSA0Ny45OTkxOUgzMS45OTk0NmMtMTcuNjc5NzAyIDAtMzEuOTk5NDYgMTQuMzE5NzU4LTMxLjk5OTQ2IDMxLjk5OTQ2djk1Ljk5ODM4YzAgMTcuNjc5NzAyIDE0LjMxOTc1OCAzMS45OTk0NiAzMS45OTk0NiAzMS45OTk0NmgzMS45OTk0NmMxMTQuODc4MDYxIDAgMjA3Ljk5NjQ5LTkzLjExODQyOSAyMDcuOTk2NDktMjA3Ljk5NjQ5VjQ5NS45OTE2M2g3OS45OTg2NWMxNy42Nzk3MDIgMCAzMS45OTk0Ni0xNC4zMTk3NTggMzEuOTk5NDYtMzEuOTk5NDZ2LTk1Ljk5ODM4YzAtMTcuNjc5NzAyLTE0LjMxOTc1OC0zMS45OTk0Ni0zMS45OTk0Ni0zMS45OTk0NmgtNzkuOTk4NjV2LTEyNy45OTc4NGMwLTI2LjM5OTU1NSAyMS41OTk2MzYtNDcuOTk5MTkgNDcuOTk5MTktNDcuOTk5MTloOTUuOTk4MzhjMTcuNjc5NzAyIDAgMzEuOTk5NDYtMTQuMzE5NzU4IDMxLjk5OTQ2LTMxLjk5OTQ2VjMxLjk5OTQ2eiBtNzA2Ljk0ODA3IDIzNi4zMTYwMTJjLTExLjExOTgxMi0xNC42Mzk3NTMtMzIuNzU5NDQ3LTE2LjM1OTcyNC00Ni43NTkyMTEtNC40NTk5MjVsLTQ5LjM3OTE2NiA0MS45NTkyOTJjLTEzLjE3OTc3OCAxMS4yMTk4MTEtMTQuNjE5NzUzIDMwLjM5OTQ4Ny00LjI5OTkyOCA0NC4yNzkyNTMgNjIuMDk4OTUyIDgzLjQxODU5MiA5Ni4wMTgzOCAxODUuMjE2ODc0IDk2LjAxODM4IDI4OS44OTUxMDggMCAxMDQuNjc4MjM0LTMzLjkxOTQyOCAyMDYuNDU2NTE2LTk2LjAxODM4IDI4OS44OTUxMDgtMTAuMzM5ODI2IDEzLjg3OTc2Ni04Ljg5OTg1IDMzLjA3OTQ0MiA0LjI5OTkyOCA0NC4yNzkyNTNsNDkuMzc5MTY2IDQxLjk3OTI5MmMxMy45OTk3NjQgMTEuODk5Nzk5IDM1LjY1OTM5OCAxMC4xNzk4MjggNDYuNzU5MjExLTQuNDU5OTI1QzEyMzUuNzk5MTQ2IDkwNS4xMjQ3MjYgMTI3OS45Nzg0IDc3NC40MjY5MzIgMTI3OS45Nzg0IDYzOS45ODkyYzAtMTM0LjQ1NzczMS00NC4xNzkyNTQtMjY1LjE3NTUyNS0xMjUuMDM3ODktMzcxLjY3MzcyOHogbS0xMDguMzM4MTcxIDQ2My43OTIxNzRMOTU0LjQ4Mzg5MyA2MzkuOTg5Mmw5Mi4xMTg0NDYtOTIuMTE4NDQ1YzEyLjQ5OTc4OS0xMi40OTk3ODkgMTIuNDk5Nzg5LTMyLjc1OTQ0NyAwLTQ1LjI1OTIzN2wtNDUuMjM5MjM3LTQ1LjIzOTIzNmMtMTIuNDk5Nzg5LTEyLjQ5OTc4OS0zMi43NTk0NDctMTIuNDk5Nzg5LTQ1LjI1OTIzNiAwTDg2My45ODU0MiA1NDkuNDkwNzI3bC05Mi4xMTg0NDUtOTIuMTE4NDQ1Yy0xMi40OTk3ODktMTIuNDk5Nzg5LTMyLjc1OTQ0Ny0xMi40OTk3ODktNDUuMjU5MjM3IDBsLTQ1LjIzOTIzNiA0NS4yMzkyMzZjLTEyLjQ5OTc4OSAxMi40OTk3ODktMTIuNDk5Nzg5IDMyLjc1OTQ0NyAwIDQ1LjI1OTIzN0w3NzMuNDg2OTQ3IDYzOS45ODkybC05Mi4xMTg0NDUgOTIuMTE4NDQ2Yy0xMi40OTk3ODkgMTIuNDk5Nzg5LTEyLjQ5OTc4OSAzMi43NTk0NDcgMCA0NS4yNTkyMzZsNDUuMjM5MjM2IDQ1LjIzOTIzN2MxMi40OTk3ODkgMTIuNDk5Nzg5IDMyLjc1OTQ0NyAxMi40OTk3ODkgNDUuMjU5MjM3IDBMODYzLjk4NTQyIDczMC40ODc2NzNsOTIuMTE4NDQ2IDkyLjExODQ0NmMxMi40OTk3ODkgMTIuNDk5Nzg5IDMyLjc1OTQ0NyAxMi40OTk3ODkgNDUuMjU5MjM2IDBsNDUuMjM5MjM3LTQ1LjIzOTIzN2MxMi40OTk3ODktMTIuNDk5Nzg5IDEyLjQ5OTc4OS0zMi43NTk0NDcgMC00NS4yNTkyMzZ6Ii8+PC9zdmc+;" parent="1" vertex="1">
          <mxGeometry x="137.5" y="507" width="56" height="44.8" as="geometry" />
        </mxCell>
        <mxCell id="P0st4BYcCsoFQTtrV0lk-3" value="" style="shape=image;verticalLabelPosition=bottom;labelBackgroundColor=default;verticalAlign=top;aspect=fixed;imageAspect=0;image=data:image/svg+xml,PHN2ZyB4bWxuczp4bGluaz0iaHR0cDovL3d3dy53My5vcmcvMTk5OS94bGluayIgeG1sbnM9Imh0dHA6Ly93d3cudzMub3JnLzIwMDAvc3ZnIiBoZWlnaHQ9IjIwMCIgd2lkdGg9IjI1MCIgdmVyc2lvbj0iMS4xIiB2aWV3Qm94PSIwIDAgMTI4MCAxMDI0IiBjbGFzcz0iaWNvbiI+PGRlZnM+PHN0eWxlIHR5cGU9InRleHQvY3NzIj5AZm9udC1mYWNlIHsgZm9udC1mYW1pbHk6IGZlZWRiYWNrLWljb25mb250OyBzcmM6IHVybCgiLy9hdC5hbGljZG4uY29tL3QvZm9udF8xMDMxMTU4X3U2OXc4eWh4ZHUud29mZjI/dD0xNjMwMDMzNzU5OTQ0IikgZm9ybWF0KCJ3b2ZmMiIpLCB1cmwoIi8vYXQuYWxpY2RuLmNvbS90L2ZvbnRfMTAzMTE1OF91Njl3OHloeGR1LndvZmY/dD0xNjMwMDMzNzU5OTQ0IikgZm9ybWF0KCJ3b2ZmIiksIHVybCgiLy9hdC5hbGljZG4uY29tL3QvZm9udF8xMDMxMTU4X3U2OXc4eWh4ZHUudHRmP3Q9MTYzMDAzMzc1OTk0NCIpIGZvcm1hdCgidHJ1ZXR5cGUiKTsgfSYjeGE7PC9zdHlsZT48L2RlZnM+PHBhdGggZmlsbD0iIzUzNUU4MCIgZD0iTTU3Ny40NTAyNTYgNjM5Ljk4OTJjMC0xMDQuNjc4MjM0IDMzLjkxOTQyOC0yMDYuNDM2NTE2IDk2LjAxODM3OS0yODkuODk1MTA4IDEwLjMzOTgyNi0xMy44Nzk3NjYgOC44OTk4NS0zMy4wNzk0NDItNC4yOTk5MjctNDQuMjc5MjUzbC00OS4zNzkxNjctNDEuOTU5MjkyYy0xMy45OTk3NjQtMTEuODk5Nzk5LTM1LjY1OTM5OC0xMC4xNzk4MjgtNDYuNzU5MjExIDQuNDU5OTI1QzQ5Mi4xNzE2OTUgMzc0LjgzMzY3NSA0NDcuOTkyNDQgNTA1LjU1MTQ2OSA0NDcuOTkyNDQgNjM5Ljk4OTJjMCAxMzQuNDU3NzMxIDQ0LjE3OTI1NCAyNjUuMTc1NTI1IDEyNS4wMzc4OSAzNzEuNjczNzI4IDExLjExOTgxMiAxNC42Mzk3NTMgMzIuNzU5NDQ3IDE2LjM1OTcyNCA0Ni43NTkyMTEgNC40NTk5MjVsNDkuMzc5MTY3LTQxLjk3OTI5MmMxMy4xNzk3NzgtMTEuMjE5ODExIDE0LjYxOTc1My0zMC4zOTk0ODcgNC4yOTk5MjctNDQuMjc5MjUyLTYyLjExODk1Mi04My40MTg1OTItOTYuMDE4MzgtMTg1LjE5Njg3NS05Ni4wMTgzNzktMjg5Ljg3NTEwOXpNNDQ3Ljk5MjQ0IDMxLjk5OTQ2YzAtMTcuNjc5NzAyLTE0LjMxOTc1OC0zMS45OTk0Ni0zMS45OTk0Ni0zMS45OTk0NmgtOTUuOTk4MzhDMjA1LjExNjUzOSAwIDExMS45OTgxMSA5My4xMTg0MjkgMTExLjk5ODExIDIwNy45OTY0OXYxMjcuOTk3ODRIMzEuOTk5NDZjLTE3LjY3OTcwMiAwLTMxLjk5OTQ2IDE0LjMxOTc1OC0zMS45OTk0NiAzMS45OTk0NnY5NS45OTgzOGMwIDE3LjY3OTcwMiAxNC4zMTk3NTggMzEuOTk5NDYgMzEuOTk5NDYgMzEuOTk5NDZoNzkuOTk4NjV2MjU1Ljk5NTY4YzAgMjYuMzk5NTU1LTIxLjU5OTYzNiA0Ny45OTkxOS00Ny45OTkxOSA0Ny45OTkxOUgzMS45OTk0NmMtMTcuNjc5NzAyIDAtMzEuOTk5NDYgMTQuMzE5NzU4LTMxLjk5OTQ2IDMxLjk5OTQ2djk1Ljk5ODM4YzAgMTcuNjc5NzAyIDE0LjMxOTc1OCAzMS45OTk0NiAzMS45OTk0NiAzMS45OTk0NmgzMS45OTk0NmMxMTQuODc4MDYxIDAgMjA3Ljk5NjQ5LTkzLjExODQyOSAyMDcuOTk2NDktMjA3Ljk5NjQ5VjQ5NS45OTE2M2g3OS45OTg2NWMxNy42Nzk3MDIgMCAzMS45OTk0Ni0xNC4zMTk3NTggMzEuOTk5NDYtMzEuOTk5NDZ2LTk1Ljk5ODM4YzAtMTcuNjc5NzAyLTE0LjMxOTc1OC0zMS45OTk0Ni0zMS45OTk0Ni0zMS45OTk0NmgtNzkuOTk4NjV2LTEyNy45OTc4NGMwLTI2LjM5OTU1NSAyMS41OTk2MzYtNDcuOTk5MTkgNDcuOTk5MTktNDcuOTk5MTloOTUuOTk4MzhjMTcuNjc5NzAyIDAgMzEuOTk5NDYtMTQuMzE5NzU4IDMxLjk5OTQ2LTMxLjk5OTQ2VjMxLjk5OTQ2eiBtNzA2Ljk0ODA3IDIzNi4zMTYwMTJjLTExLjExOTgxMi0xNC42Mzk3NTMtMzIuNzU5NDQ3LTE2LjM1OTcyNC00Ni43NTkyMTEtNC40NTk5MjVsLTQ5LjM3OTE2NiA0MS45NTkyOTJjLTEzLjE3OTc3OCAxMS4yMTk4MTEtMTQuNjE5NzUzIDMwLjM5OTQ4Ny00LjI5OTkyOCA0NC4yNzkyNTMgNjIuMDk4OTUyIDgzLjQxODU5MiA5Ni4wMTgzOCAxODUuMjE2ODc0IDk2LjAxODM4IDI4OS44OTUxMDggMCAxMDQuNjc4MjM0LTMzLjkxOTQyOCAyMDYuNDU2NTE2LTk2LjAxODM4IDI4OS44OTUxMDgtMTAuMzM5ODI2IDEzLjg3OTc2Ni04Ljg5OTg1IDMzLjA3OTQ0MiA0LjI5OTkyOCA0NC4yNzkyNTNsNDkuMzc5MTY2IDQxLjk3OTI5MmMxMy45OTk3NjQgMTEuODk5Nzk5IDM1LjY1OTM5OCAxMC4xNzk4MjggNDYuNzU5MjExLTQuNDU5OTI1QzEyMzUuNzk5MTQ2IDkwNS4xMjQ3MjYgMTI3OS45Nzg0IDc3NC40MjY5MzIgMTI3OS45Nzg0IDYzOS45ODkyYzAtMTM0LjQ1NzczMS00NC4xNzkyNTQtMjY1LjE3NTUyNS0xMjUuMDM3ODktMzcxLjY3MzcyOHogbS0xMDguMzM4MTcxIDQ2My43OTIxNzRMOTU0LjQ4Mzg5MyA2MzkuOTg5Mmw5Mi4xMTg0NDYtOTIuMTE4NDQ1YzEyLjQ5OTc4OS0xMi40OTk3ODkgMTIuNDk5Nzg5LTMyLjc1OTQ0NyAwLTQ1LjI1OTIzN2wtNDUuMjM5MjM3LTQ1LjIzOTIzNmMtMTIuNDk5Nzg5LTEyLjQ5OTc4OS0zMi43NTk0NDctMTIuNDk5Nzg5LTQ1LjI1OTIzNiAwTDg2My45ODU0MiA1NDkuNDkwNzI3bC05Mi4xMTg0NDUtOTIuMTE4NDQ1Yy0xMi40OTk3ODktMTIuNDk5Nzg5LTMyLjc1OTQ0Ny0xMi40OTk3ODktNDUuMjU5MjM3IDBsLTQ1LjIzOTIzNiA0NS4yMzkyMzZjLTEyLjQ5OTc4OSAxMi40OTk3ODktMTIuNDk5Nzg5IDMyLjc1OTQ0NyAwIDQ1LjI1OTIzN0w3NzMuNDg2OTQ3IDYzOS45ODkybC05Mi4xMTg0NDUgOTIuMTE4NDQ2Yy0xMi40OTk3ODkgMTIuNDk5Nzg5LTEyLjQ5OTc4OSAzMi43NTk0NDcgMCA0NS4yNTkyMzZsNDUuMjM5MjM2IDQ1LjIzOTIzN2MxMi40OTk3ODkgMTIuNDk5Nzg5IDMyLjc1OTQ0NyAxMi40OTk3ODkgNDUuMjU5MjM3IDBMODYzLjk4NTQyIDczMC40ODc2NzNsOTIuMTE4NDQ2IDkyLjExODQ0NmMxMi40OTk3ODkgMTIuNDk5Nzg5IDMyLjc1OTQ0NyAxMi40OTk3ODkgNDUuMjU5MjM2IDBsNDUuMjM5MjM3LTQ1LjIzOTIzN2MxMi40OTk3ODktMTIuNDk5Nzg5IDEyLjQ5OTc4OS0zMi43NTk0NDcgMC00NS4yNTkyMzZ6Ii8+PC9zdmc+;" parent="1" vertex="1">
          <mxGeometry x="642.5" y="514.1" width="56" height="44.8" as="geometry" />
        </mxCell>
        <mxCell id="P0st4BYcCsoFQTtrV0lk-4" value="" style="shape=image;verticalLabelPosition=bottom;labelBackgroundColor=default;verticalAlign=top;aspect=fixed;imageAspect=0;image=data:image/svg+xml,PHN2ZyB4bWxuczp4bGluaz0iaHR0cDovL3d3dy53My5vcmcvMTk5OS94bGluayIgeG1sbnM9Imh0dHA6Ly93d3cudzMub3JnLzIwMDAvc3ZnIiBoZWlnaHQ9IjIwMCIgd2lkdGg9IjIwMCIgdmVyc2lvbj0iMS4xIiB2aWV3Qm94PSIwIDAgMTAyNCAxMDI0IiBjbGFzcz0iaWNvbiI+PGRlZnM+PHN0eWxlIHR5cGU9InRleHQvY3NzIj5AZm9udC1mYWNlIHsgZm9udC1mYW1pbHk6IGZlZWRiYWNrLWljb25mb250OyBzcmM6IHVybCgiLy9hdC5hbGljZG4uY29tL3QvZm9udF8xMDMxMTU4X3U2OXc4eWh4ZHUud29mZjI/dD0xNjMwMDMzNzU5OTQ0IikgZm9ybWF0KCJ3b2ZmMiIpLCB1cmwoIi8vYXQuYWxpY2RuLmNvbS90L2ZvbnRfMTAzMTE1OF91Njl3OHloeGR1LndvZmY/dD0xNjMwMDMzNzU5OTQ0IikgZm9ybWF0KCJ3b2ZmIiksIHVybCgiLy9hdC5hbGljZG4uY29tL3QvZm9udF8xMDMxMTU4X3U2OXc4eWh4ZHUudHRmP3Q9MTYzMDAzMzc1OTk0NCIpIGZvcm1hdCgidHJ1ZXR5cGUiKTsgfSYjeGE7PC9zdHlsZT48L2RlZnM+PHBhdGggZmlsbD0iIzUzNUU4MCIgZD0iTTg5OS4wNzIgMTA4LjU0NGgtNzc0LjE0NEM4NS42MDY0IDEwOC41NDQgNTMuMjQ4IDE0MC45MDI0IDUzLjI0OCAxODAuMjI0djUyOC4zODRjMCAzOS4zMjE2IDMyLjM1ODQgNzEuNjggNzEuNjggNzEuNjhIMzM1Ljg3MnY3My43MjhIMjQ3LjgwOGMtMTYuNzkzNiAwLTMwLjcyIDEzLjkyNjQtMzAuNzIgMzAuNzJzMTMuOTI2NCAzMC43MiAzMC43MiAzMC43Mmg1MjguMzg0YzE2Ljc5MzYgMCAzMC43Mi0xMy45MjY0IDMwLjcyLTMwLjcycy0xMy45MjY0LTMwLjcyLTMwLjcyLTMwLjcySDY4OC4xMjh2LTczLjcyOGgyMTAuOTQ0YzM5LjMyMTYgMCA3MS42OC0zMi4zNTg0IDcxLjY4LTcxLjY4VjE4MC4yMjRjMC0zOS4zMjE2LTMyLjM1ODQtNzEuNjgtNzEuNjgtNzEuNjh6IG0tNzc0LjE0NCA2MS40NGg3NzQuMTQ0YzUuNzM0NCAwIDEwLjI0IDQuNTA1NiAxMC4yNCAxMC4yNHYzNTQuMzA0SDExNC42ODhWMTgwLjIyNGMwLTUuNzM0NCA0LjUwNTYtMTAuMjQgMTAuMjQtMTAuMjR6IG01MDEuNzYgNjg0LjAzMkgzOTcuMzEydi03My43MjhoMjI5LjM3NnY3My43Mjh6IG0yODIuNjI0LTE0NS40MDhjMCA1LjczNDQtNC41MDU2IDEwLjI0LTEwLjI0IDEwLjI0aC03NzQuMTQ0Yy01LjczNDQgMC0xMC4yNC00LjUwNTYtMTAuMjQtMTAuMjR2LTExMi42NGg3OTQuNjI0VjcwOC42MDh6Ii8+PC9zdmc+;" parent="1" vertex="1">
          <mxGeometry x="173.94" y="596.09" width="67.11" height="67.11" as="geometry" />
        </mxCell>
        <mxCell id="P0st4BYcCsoFQTtrV0lk-7" value="" style="shape=flexArrow;endArrow=classic;startArrow=classic;html=1;rounded=0;strokeColor=none;fillColor=#535E80;width=5.862068965517242;startSize=5.206896551724138;startWidth=8.668252080856124;endWidth=8.668252080856124;endSize=6.3;" parent="1" edge="1">
          <mxGeometry width="100" height="100" relative="1" as="geometry">
            <mxPoint x="408" y="536.19" as="sourcePoint" />
            <mxPoint x="497" y="536.29" as="targetPoint" />
          </mxGeometry>
        </mxCell>
        <mxCell id="x9DbvD0DJm_1i8W1Pchg-3" value="" style="shape=flexArrow;endArrow=none;html=1;rounded=0;fontSize=15;fontColor=#4A919B;strokeColor=none;fillColor=#535E80;startArrow=block;endFill=0;" parent="1" edge="1">
          <mxGeometry width="50" height="50" relative="1" as="geometry">
            <mxPoint x="80" y="556.7" as="sourcePoint" />
            <mxPoint x="118" y="556.7" as="targetPoint" />
          </mxGeometry>
        </mxCell>
        <mxCell id="x9DbvD0DJm_1i8W1Pchg-4" value="&lt;div style=&quot;font-family: Menlo, Monaco, &amp;quot;Courier New&amp;quot;, monospace; line-height: 24px;&quot;&gt;&lt;div style=&quot;&quot;&gt;&lt;span style=&quot;font-size: 15px;&quot;&gt;&lt;font color=&quot;#ffffff&quot;&gt;resp&lt;/font&gt;&lt;/span&gt;&lt;/div&gt;&lt;/div&gt;" style="rounded=1;whiteSpace=wrap;html=1;strokeWidth=5;fontSize=30;strokeColor=#535E80;fillColor=#535E80;align=center;" parent="1" vertex="1">
          <mxGeometry x="25" y="544.4" width="39" height="29.7" as="geometry" />
        </mxCell>
        <mxCell id="x9DbvD0DJm_1i8W1Pchg-6" value="&lt;font color=&quot;#535e80&quot;&gt;remoteFunc&lt;/font&gt;" style="text;html=1;strokeColor=none;fillColor=none;align=center;verticalAlign=middle;whiteSpace=wrap;rounded=0;fontSize=15;" parent="1" vertex="1">
          <mxGeometry x="633.5" y="558.9" width="85" height="30" as="geometry" />
        </mxCell>
        <mxCell id="sfySFkq4cwXb8gAofgEJ-2" value="&lt;div style=&quot;font-family: Menlo, Monaco, &amp;quot;Courier New&amp;quot;, monospace; line-height: 24px;&quot;&gt;&lt;div style=&quot;&quot;&gt;&lt;span style=&quot;font-size: 15px;&quot;&gt;&lt;font color=&quot;#ffffff&quot;&gt;send()&lt;/font&gt;&lt;/span&gt;&lt;/div&gt;&lt;/div&gt;" style="rounded=1;whiteSpace=wrap;html=1;strokeWidth=5;fontSize=30;strokeColor=#67AB9F;fillColor=#67AB9F;align=center;" parent="1" vertex="1">
          <mxGeometry x="324" y="499.6" width="64" height="29" as="geometry" />
        </mxCell>
        <mxCell id="sfySFkq4cwXb8gAofgEJ-3" value="&lt;div style=&quot;font-family: Menlo, Monaco, &amp;quot;Courier New&amp;quot;, monospace; line-height: 24px;&quot;&gt;&lt;div style=&quot;&quot;&gt;&lt;span style=&quot;font-size: 15px;&quot;&gt;&lt;font color=&quot;#ffffff&quot;&gt;recv()&lt;/font&gt;&lt;/span&gt;&lt;/div&gt;&lt;/div&gt;" style="rounded=1;whiteSpace=wrap;html=1;strokeWidth=5;fontSize=30;strokeColor=#535E80;fillColor=#535E80;align=center;" parent="1" vertex="1">
          <mxGeometry x="324" y="544.4" width="65" height="29.7" as="geometry" />
        </mxCell>
        <mxCell id="sfySFkq4cwXb8gAofgEJ-4" value="" style="shape=flexArrow;endArrow=classic;html=1;rounded=0;fontSize=15;fontColor=#4A919B;strokeColor=none;fillColor=#67AB9F;" parent="1" edge="1">
          <mxGeometry width="50" height="50" relative="1" as="geometry">
            <mxPoint x="205" y="515.64" as="sourcePoint" />
            <mxPoint x="243" y="515.64" as="targetPoint" />
          </mxGeometry>
        </mxCell>
        <mxCell id="sfySFkq4cwXb8gAofgEJ-5" value="" style="shape=flexArrow;endArrow=none;html=1;rounded=0;fontSize=15;fontColor=#4A919B;strokeColor=none;fillColor=#535E80;startArrow=block;endFill=0;" parent="1" edge="1">
          <mxGeometry width="50" height="50" relative="1" as="geometry">
            <mxPoint x="205" y="556.74" as="sourcePoint" />
            <mxPoint x="243" y="556.74" as="targetPoint" />
          </mxGeometry>
        </mxCell>
        <mxCell id="sfySFkq4cwXb8gAofgEJ-6" value="" style="shape=flexArrow;endArrow=classic;html=1;rounded=0;fontSize=15;fontColor=#4A919B;strokeColor=none;fillColor=#67AB9F;" parent="1" edge="1">
          <mxGeometry width="50" height="50" relative="1" as="geometry">
            <mxPoint x="593" y="517.18" as="sourcePoint" />
            <mxPoint x="631" y="517.18" as="targetPoint" />
          </mxGeometry>
        </mxCell>
        <mxCell id="sfySFkq4cwXb8gAofgEJ-7" value="" style="shape=flexArrow;endArrow=none;html=1;rounded=0;fontSize=15;fontColor=#4A919B;strokeColor=none;fillColor=#535E80;startArrow=block;endFill=0;" parent="1" edge="1">
          <mxGeometry width="50" height="50" relative="1" as="geometry">
            <mxPoint x="593" y="558.28" as="sourcePoint" />
            <mxPoint x="631" y="558.28" as="targetPoint" />
          </mxGeometry>
        </mxCell>
        <mxCell id="sfySFkq4cwXb8gAofgEJ-8" value="&lt;div style=&quot;font-family: Menlo, Monaco, &amp;quot;Courier New&amp;quot;, monospace; line-height: 24px;&quot;&gt;&lt;div style=&quot;&quot;&gt;&lt;span style=&quot;font-size: 15px;&quot;&gt;&lt;font color=&quot;#ffffff&quot;&gt;send()&lt;/font&gt;&lt;/span&gt;&lt;/div&gt;&lt;/div&gt;" style="rounded=1;whiteSpace=wrap;html=1;strokeWidth=5;fontSize=30;strokeColor=#67AB9F;fillColor=#67AB9F;align=center;" parent="1" vertex="1">
          <mxGeometry x="516" y="499.6" width="64" height="29" as="geometry" />
        </mxCell>
        <mxCell id="sfySFkq4cwXb8gAofgEJ-9" value="&lt;div style=&quot;font-family: Menlo, Monaco, &amp;quot;Courier New&amp;quot;, monospace; line-height: 24px;&quot;&gt;&lt;div style=&quot;&quot;&gt;&lt;span style=&quot;font-size: 15px;&quot;&gt;&lt;font color=&quot;#ffffff&quot;&gt;recv()&lt;/font&gt;&lt;/span&gt;&lt;/div&gt;&lt;/div&gt;" style="rounded=1;whiteSpace=wrap;html=1;strokeWidth=5;fontSize=30;strokeColor=#535E80;fillColor=#535E80;align=center;" parent="1" vertex="1">
          <mxGeometry x="516" y="544.4" width="65" height="29.7" as="geometry" />
        </mxCell>
        <mxCell id="sfySFkq4cwXb8gAofgEJ-11" value="&lt;font style=&quot;font-size: 19px;&quot;&gt;TCP&lt;/font&gt;" style="text;html=1;strokeColor=none;fillColor=none;align=center;verticalAlign=middle;whiteSpace=wrap;rounded=0;" parent="1" vertex="1">
          <mxGeometry x="419.5" y="503" width="60" height="30" as="geometry" />
        </mxCell>
        <mxCell id="7P2mC_WzLa2XhHPeVaYm-1" value="&lt;div style=&quot;font-family: Menlo, Monaco, &amp;quot;Courier New&amp;quot;, monospace; line-height: 24px;&quot;&gt;&lt;div style=&quot;&quot;&gt;&lt;font color=&quot;#ffffff&quot;&gt;&lt;span style=&quot;font-size: 15px;&quot;&gt;序列化&lt;/span&gt;&lt;/font&gt;&lt;/div&gt;&lt;/div&gt;" style="rounded=1;whiteSpace=wrap;html=1;strokeWidth=5;fontSize=30;strokeColor=#F19C99;fillColor=#F19C99;align=center;" vertex="1" parent="1">
          <mxGeometry x="249" y="499.6" width="64" height="29" as="geometry" />
        </mxCell>
        <mxCell id="7P2mC_WzLa2XhHPeVaYm-3" value="&lt;div style=&quot;font-family: Menlo, Monaco, &amp;quot;Courier New&amp;quot;, monospace; line-height: 24px;&quot;&gt;&lt;div style=&quot;&quot;&gt;&lt;span style=&quot;font-size: 15px;&quot;&gt;&lt;font color=&quot;#ffffff&quot;&gt;反序列化&lt;/font&gt;&lt;/span&gt;&lt;/div&gt;&lt;/div&gt;" style="rounded=1;whiteSpace=wrap;html=1;strokeWidth=5;fontSize=30;strokeColor=#F19C99;fillColor=#F19C99;align=center;" vertex="1" parent="1">
          <mxGeometry x="248.5" y="544.4" width="65" height="29.7" as="geometry" />
        </mxCell>
      </root>
    </mxGraphModel>
  </diagram>
</mxfile>
